<svg width="177" height="137" viewBox="0 0 177 137" fill="none" xmlns="http://www.w3.org/2000/svg">
<g clip-path="url(#clip0)">
<path d="M40.7558 94.1208L54.4597 72.5702L23.7693 53.0546L7.91998 77.979L33.3048 94.1208H40.7558Z" fill="#F0F0F0"/>
<path d="M100.513 24.9079V8.15567H108.889V7.62939e-06H67.8904V40.9988H102.938V36.9902C102.938 36.243 103.085 35.5031 103.371 34.8127C103.657 34.1224 104.076 33.4951 104.604 32.9667C105.133 32.4383 105.76 32.0192 106.45 31.7333C107.141 31.4473 107.881 31.3001 108.628 31.3001H108.889V24.9079H100.513Z" fill="#BAB7B7"/>
<path d="M145.92 105.803H118.588V111.534H145.92V105.803Z" fill="black"/>
<path d="M151.872 77.5891H111.755V82.8792H151.872V77.5891Z" fill="#F0F0F0"/>
<path d="M171.489 135.56H0V136.001H171.489V135.56Z" fill="#3F3D56"/>
<path d="M158.746 136.001H108.628C107.061 135.999 105.558 135.376 104.45 134.268C103.342 133.16 102.719 131.658 102.717 130.091V36.9902C102.719 35.4232 103.342 33.9209 104.45 32.8128C105.558 31.7048 107.061 31.0815 108.628 31.0797H158.746C160.313 31.0815 161.815 31.7048 162.923 32.8128C164.031 33.9209 164.654 35.4232 164.656 36.9902V130.091C164.654 131.658 164.031 133.16 162.923 134.268C161.815 135.376 160.313 135.999 158.746 136.001ZM108.628 31.5206C107.178 31.5222 105.787 32.099 104.762 33.1244C103.737 34.1498 103.16 35.5401 103.158 36.9902V130.091C103.16 131.541 103.737 132.931 104.762 133.957C105.787 134.982 107.178 135.559 108.628 135.56H158.746C160.196 135.559 161.586 134.982 162.612 133.957C163.637 132.931 164.214 131.541 164.215 130.091V36.9902C164.214 35.5401 163.637 34.1498 162.612 33.1244C161.586 32.099 160.196 31.5222 158.746 31.5206H108.628Z" fill="#3F3D56"/>
<path d="M127.735 35.4882C127.474 35.4882 127.218 35.4106 127.001 35.2653C126.783 35.12 126.614 34.9134 126.514 34.6718C126.413 34.4301 126.387 34.1642 126.438 33.9076C126.489 33.6511 126.615 33.4154 126.8 33.2305C126.985 33.0455 127.221 32.9195 127.477 32.8685C127.734 32.8175 128 32.8437 128.241 32.9438C128.483 33.0439 128.69 33.2134 128.835 33.4309C128.98 33.6484 129.058 33.9041 129.058 34.1656C129.058 34.5163 128.918 34.8524 128.67 35.1004C128.422 35.3483 128.086 35.4878 127.735 35.4882ZM127.735 33.2839C127.561 33.2839 127.391 33.3357 127.246 33.4325C127.101 33.5294 126.988 33.6671 126.921 33.8282C126.854 33.9893 126.837 34.1666 126.871 34.3376C126.905 34.5087 126.989 34.6658 127.112 34.7891C127.235 34.9124 127.392 34.9964 127.563 35.0304C127.734 35.0644 127.912 35.0469 128.073 34.9802C128.234 34.9135 128.372 34.8005 128.468 34.6555C128.565 34.5105 128.617 34.34 128.617 34.1656C128.617 33.9319 128.524 33.7078 128.359 33.5425C128.193 33.3772 127.969 33.2842 127.735 33.2839Z" fill="#3F3D56"/>
<path d="M140.74 33.9452H131.042V34.3861H140.74V33.9452Z" fill="#3F3D56"/>
<path d="M160.909 130.05H106.464V37.2516H160.909V130.05ZM106.905 129.609H160.468V37.6924H106.905V129.609Z" fill="#3F3D56"/>
<path d="M117.265 40.9987H108.889V44.0847H117.265V40.9987Z" fill="#3F3D56"/>
<path d="M121.894 70.3151H113.518V73.401H121.894V70.3151Z" fill="#3F3D56"/>
<path d="M154.076 81.7771H113.518V76.0461H154.076V81.7771ZM113.959 81.3362H153.635V76.4869H113.959V81.3362Z" fill="#3F3D56"/>
<path d="M151.872 94.3412H111.755V99.6314H151.872V94.3412Z" fill="#F0F0F0"/>
<path d="M121.894 87.0673H113.518V90.1532H121.894V87.0673Z" fill="#3F3D56"/>
<path d="M154.076 98.5293H113.518V92.7982H154.076V98.5293ZM113.959 98.0884H153.635V93.2391H113.959V98.0884Z" fill="#3F3D56"/>
<path d="M147.684 110.212H119.91V104.04H147.684V110.212ZM120.351 109.771H147.243V104.481H120.351V109.771Z" fill="#3F3D56"/>
<path d="M152.974 79.5728C152.974 80.0266 152.834 80.4693 152.573 80.8406C152.312 81.2118 151.942 81.4934 151.515 81.647C151.088 81.8006 150.624 81.8186 150.187 81.6987C149.749 81.5788 149.359 81.3267 149.07 80.9769L149.068 80.9747C148.857 80.7191 148.707 80.4193 148.628 80.0976C148.549 79.7759 148.544 79.4405 148.612 79.1165C148.681 78.7924 148.822 78.4879 149.024 78.2257C149.226 77.9635 149.485 77.7503 149.782 77.602C150.078 77.4536 150.404 77.374 150.735 77.3689C151.066 77.3638 151.394 77.4334 151.695 77.5726C151.995 77.7118 152.261 77.9169 152.471 78.1728C152.681 78.4286 152.831 78.7286 152.91 79.0504C152.91 79.0507 152.91 79.051 152.91 79.0513C152.91 79.0516 152.91 79.0518 152.911 79.052C152.911 79.0522 152.911 79.0524 152.911 79.0525C152.912 79.0526 152.912 79.0527 152.912 79.0527C152.953 79.2231 152.974 79.3976 152.974 79.5728Z" fill="black"/>
<path opacity="0.1" d="M152.974 79.5729C152.974 80.0266 152.834 80.4694 152.573 80.8406C152.312 81.2118 151.943 81.4934 151.516 81.647C151.089 81.8006 150.625 81.8186 150.187 81.6987C149.749 81.5788 149.359 81.3267 149.07 80.977L149.068 80.9747C149.027 80.8043 149.007 80.6298 149.006 80.4546C149.006 80.0008 149.146 79.5581 149.407 79.1868C149.668 78.8156 150.038 78.534 150.465 78.3804C150.892 78.2268 151.356 78.2088 151.793 78.3287C152.231 78.4486 152.621 78.7007 152.91 79.0505C152.91 79.0507 152.91 79.051 152.91 79.0513C152.91 79.0516 152.91 79.0518 152.911 79.052C152.911 79.0522 152.911 79.0524 152.911 79.0525C152.912 79.0526 152.912 79.0527 152.912 79.0527C152.953 79.2231 152.974 79.3976 152.974 79.5729Z" fill="black"/>
<path d="M151.651 83.0996C152.869 83.0996 153.856 82.1128 153.856 80.8954C153.856 79.678 152.869 78.6912 151.651 78.6912C150.434 78.6912 149.447 79.678 149.447 80.8954C149.447 82.1128 150.434 83.0996 151.651 83.0996Z" fill="black"/>
<path d="M152.974 96.325C152.974 96.7788 152.834 97.2215 152.573 97.5927C152.312 97.964 151.942 98.2456 151.515 98.3992C151.088 98.5528 150.624 98.5708 150.187 98.4509C149.749 98.331 149.359 98.0789 149.07 97.7291L149.068 97.7269C148.857 97.4713 148.707 97.1715 148.628 96.8498C148.549 96.5281 148.544 96.1927 148.612 95.8687C148.681 95.5446 148.822 95.2401 149.024 94.9779C149.226 94.7157 149.485 94.5025 149.782 94.3542C150.078 94.2058 150.404 94.1262 150.735 94.1211C151.066 94.116 151.394 94.1856 151.695 94.3248C151.995 94.464 152.261 94.6691 152.471 94.925C152.681 95.1808 152.831 95.4808 152.91 95.8026C152.91 95.8029 152.91 95.8032 152.91 95.8035C152.91 95.8038 152.91 95.804 152.911 95.8042C152.911 95.8044 152.911 95.8046 152.911 95.8047C152.912 95.8048 152.912 95.8049 152.912 95.8048C152.953 95.9753 152.974 96.1498 152.974 96.325Z" fill="black"/>
<path opacity="0.1" d="M152.974 96.325C152.974 96.7788 152.834 97.2215 152.573 97.5927C152.312 97.964 151.943 98.2456 151.516 98.3992C151.089 98.5527 150.625 98.5708 150.187 98.4509C149.749 98.331 149.359 98.0789 149.07 97.7291L149.068 97.7269C149.027 97.5565 149.007 97.3819 149.006 97.2067C149.006 96.7529 149.146 96.3102 149.407 95.939C149.668 95.5678 150.038 95.2862 150.465 95.1326C150.892 94.979 151.356 94.9609 151.793 95.0809C152.231 95.2008 152.621 95.4528 152.91 95.8026C152.91 95.8029 152.91 95.8032 152.91 95.8035C152.91 95.8038 152.91 95.804 152.911 95.8042C152.911 95.8044 152.911 95.8046 152.911 95.8047C152.912 95.8048 152.912 95.8048 152.912 95.8048C152.953 95.9753 152.974 96.1498 152.974 96.325Z" fill="black"/>
<path d="M151.651 99.8518C152.869 99.8518 153.856 98.8649 153.856 97.6476C153.856 96.4302 152.869 95.4433 151.651 95.4433C150.434 95.4433 149.447 96.4302 149.447 97.6476C149.447 98.8649 150.434 99.8518 151.651 99.8518Z" fill="black"/>
<path d="M114.62 10.5803H103.158V22.0423H114.62V10.5803Z" fill="#BAB7B7"/>
<path d="M147.904 18.9564C147.381 18.9564 146.87 18.8013 146.435 18.5106C146 18.22 145.661 17.8069 145.46 17.3236C145.26 16.8402 145.208 16.3084 145.31 15.7953C145.412 15.2822 145.664 14.8109 146.034 14.441C146.404 14.0711 146.875 13.8191 147.388 13.7171C147.901 13.615 148.433 13.6674 148.916 13.8676C149.4 14.0678 149.813 14.4068 150.103 14.8418C150.394 15.2768 150.549 15.7882 150.549 16.3113C150.548 17.0126 150.269 17.6849 149.774 18.1808C149.278 18.6767 148.605 18.9556 147.904 18.9564ZM147.904 14.1071C147.468 14.1071 147.042 14.2364 146.68 14.4786C146.317 14.7208 146.035 15.065 145.868 15.4678C145.701 15.8706 145.657 16.3138 145.742 16.7414C145.827 17.1689 146.037 17.5617 146.345 17.87C146.654 18.1782 147.047 18.3882 147.474 18.4732C147.902 18.5583 148.345 18.5146 148.748 18.3478C149.15 18.1809 149.495 17.8984 149.737 17.5359C149.979 17.1735 150.108 16.7473 150.108 16.3113C150.108 15.7269 149.875 15.1667 149.462 14.7534C149.049 14.3402 148.489 14.1078 147.904 14.1071Z" fill="#3F3D56"/>
<path d="M89.7123 55.7671H83.9813V50.0361H89.7123V55.7671ZM84.4222 55.3263H89.2715V50.477H84.4222V55.3263Z" fill="#3F3D56"/>
<path d="M177 98.5293H171.269V92.7982H177V98.5293ZM171.71 98.0884H176.559V93.2391H171.71V98.0884Z" fill="#3F3D56"/>
<path d="M63.9233 60.1021L64.9068 60.6318L68.2533 62.4354L73.6559 65.3463L76.8044 59.5047C77.1009 58.9558 77.2863 58.3539 77.3499 57.7333C77.4135 57.1127 77.3541 56.4856 77.1751 55.888C76.9961 55.2904 76.701 54.734 76.3066 54.2506C75.9123 53.7671 75.4265 53.3662 74.8771 53.0708C73.7029 52.4367 72.3577 52.1917 71.0354 52.3712C69.7131 52.5506 68.4818 53.1451 67.519 54.0691L67.5174 54.0708C67.0437 54.5257 66.6439 55.0519 66.3326 55.6302L63.9233 60.1021Z" fill="#2F2E41"/>
<path d="M78.6691 119.676L78.0092 126.937L75.5338 127.267L73.8837 119.016L78.6691 119.676Z" fill="#FFB8B8"/>
<path d="M74.8738 127.267C74.8738 127.267 78.0091 125.617 78.6691 126.937C78.6691 126.937 78.1741 130.897 80.1543 131.392C82.1344 131.887 82.9595 135.352 80.1543 135.682C77.349 136.012 75.5338 135.022 74.5437 135.022C73.5536 135.022 74.5437 131.557 74.5437 131.557L74.8738 127.267Z" fill="#2F2E41"/>
<path d="M58.7023 119.676L59.3624 126.937L61.8376 127.267L63.4877 119.016L58.7023 119.676Z" fill="#FFB8B8"/>
<path d="M62.4977 127.267C62.4977 127.267 59.3624 125.617 58.7023 126.937C58.7023 126.937 59.1974 130.897 57.2172 131.392C55.237 131.887 54.4119 135.352 57.2172 135.682C60.0224 136.012 61.8376 135.022 62.8277 135.022C63.8178 135.022 62.8277 131.557 62.8277 131.557L62.4977 127.267Z" fill="#2F2E41"/>
<path d="M72.2335 61.4255C74.603 61.4255 76.5239 59.5046 76.5239 57.1351C76.5239 54.7656 74.603 52.8447 72.2335 52.8447C69.864 52.8447 67.9431 54.7656 67.9431 57.1351C67.9431 59.5046 69.864 61.4255 72.2335 61.4255Z" fill="#FFB8B8"/>
<path d="M58.5372 65.5509L62.0026 70.9964L66.1279 70.6664L72.8936 71.1614C72.8936 71.1614 73.5322 69.8842 74.0536 68.6416C74.3391 68.0211 74.5587 67.3723 74.7087 66.706C74.8737 65.5509 72.5635 64.3958 72.5635 64.3958C72.5635 64.3958 72.4728 64.3793 72.321 64.343C72.1196 64.2951 71.8094 64.2159 71.4695 64.1004C70.7021 63.8397 69.7797 63.3974 69.5932 62.7456C69.2632 61.5905 71.7384 59.9404 71.7384 59.9404L68.7682 57.1351C68.7682 57.1351 66.1296 60.8001 62.925 61.6351C62.7392 61.6842 62.5508 61.7227 62.3606 61.7506C62.3507 61.7522 62.3425 61.7539 62.3326 61.7555C58.8673 62.2506 58.5372 65.5509 58.5372 65.5509Z" fill="#FFB8B8"/>
<path d="M60.3524 64.0657L58.5373 65.5509C58.5373 65.5509 57.0521 72.6465 57.5472 74.6267C58.0422 76.6069 57.3821 78.4221 57.3821 78.7521C57.3821 79.0821 55.897 91.4583 55.897 91.4583C55.897 91.4583 52.9267 98.0589 56.062 97.3988C59.1973 96.7388 58.0422 90.1382 58.0422 90.1382L61.8376 78.5871V68.8512L60.3524 64.0657Z" fill="#FFB8B8"/>
<path d="M73.3886 65.3859L74.7088 66.376L75.3688 80.2372L80.3193 92.1184C80.3193 92.1184 83.9496 97.8939 81.6394 98.0589C79.3292 98.2239 77.8441 92.1184 77.8441 92.1184L73.3886 80.7323L72.7286 69.6763L73.3886 65.3859Z" fill="#FFB8B8"/>
<path d="M65.1378 66.376C65.1378 66.376 68.4381 68.6862 73.7186 67.8611C73.7186 67.8611 75.2038 70.8314 74.3787 72.4815C73.5536 74.1317 75.3688 78.0921 75.6988 78.5871C76.0288 79.0821 79.8242 89.3131 81.1443 100.369C82.4644 111.425 86.0948 119.016 82.9595 120.006C79.8242 120.996 73.3886 122.151 72.7285 121.161C72.0685 120.171 71.0784 95.5837 71.0784 95.5837L69.2632 104.99C69.2632 104.99 71.7384 120.996 69.9233 121.326C68.1081 121.656 56.722 120.666 57.0521 118.686C57.3821 116.706 60.6824 106.31 60.6824 106.31C60.6824 106.31 60.5174 85.5177 63.8177 81.5574C63.8177 81.5574 65.1378 79.4122 63.3227 76.6069C61.5075 73.8016 61.6725 69.3462 61.6725 69.3462C61.6725 69.3462 62.9926 69.3462 65.1378 66.376Z" fill="#2F2E41"/>
<path d="M62.3607 61.7505L65.138 67.8611L65.7979 67.5311L62.9249 61.635L62.3607 61.7505Z" fill="#2F2E41"/>
<path d="M71.4695 64.1004L73.5536 68.6862L74.0536 68.6416L73.8837 67.8611L72.321 64.343C72.1196 64.2951 71.8094 64.2159 71.4695 64.1004Z" fill="#2F2E41"/>
<path d="M64.9069 60.6318C65.0656 61.1423 65.3714 61.5946 65.786 61.9321C66.2006 62.2695 66.7055 62.4772 67.2376 62.529C67.7696 62.5808 68.3052 62.4744 68.7771 62.2232C69.2489 61.9721 69.6362 61.5872 69.8904 61.1169C67.8029 58.3876 69.5934 56.6731 72.9844 55.376C73.2399 54.902 73.3485 54.3626 73.2965 53.8266C73.2444 53.2907 73.0342 52.7823 72.6924 52.3662C71.7577 52.2466 70.8081 52.3375 69.913 52.6321C69.0179 52.9268 68.2 53.4177 67.5191 54.0691L67.5175 54.0708L65.1083 58.5394C64.9367 58.857 64.8305 59.2058 64.7959 59.5652C64.7613 59.9246 64.799 60.2872 64.9069 60.6318Z" fill="#2F2E41"/>
<path d="M69.6758 58.6202C69.9948 58.6202 70.2534 58.177 70.2534 57.6301C70.2534 57.0833 69.9948 56.6401 69.6758 56.6401C69.3568 56.6401 69.0983 57.0833 69.0983 57.6301C69.0983 58.177 69.3568 58.6202 69.6758 58.6202Z" fill="#FFB8B8"/>
<path d="M71.3969 56.0146L76.3573 58.2621L77.2665 56.2556C77.1099 55.5222 76.7819 54.8363 76.3094 54.2539L72.8953 52.7077L71.3969 56.0146Z" fill="#2F2E41"/>
</g>
<defs>
<clipPath id="clip0">
<rect width="177" height="136.001" fill="white"/>
</clipPath>
</defs>
</svg>
