<svg width="214" height="138" viewBox="0 0 214 138" fill="none" xmlns="http://www.w3.org/2000/svg">
<path d="M169.544 108.899C169.544 110.099 162.532 113.596 154.203 113.596C145.874 113.596 139.384 110.099 139.384 108.899C139.384 107.699 146.135 108.085 154.472 108.085C162.809 108.085 169.544 107.697 169.544 108.899Z" fill="#504F60"/>
<path opacity="0.2" d="M169.544 108.899C169.544 110.099 162.532 113.596 154.203 113.596C145.874 113.596 139.384 110.099 139.384 108.899" fill="black"/>
<path d="M85.6648 86.8827C87.0166 87.0556 88.4194 87.1654 89.7141 86.7465C89.918 86.6834 90.1423 86.5431 90.1219 86.3397C90.1073 86.2658 90.0759 86.1963 90.0301 86.1364C89.5421 85.4063 89.1321 84.6272 88.8068 83.8119C88.7939 83.7694 88.7674 83.7323 88.7314 83.7062C88.6892 83.691 88.643 83.691 88.6009 83.7062C88.0035 83.8628 87.4876 84.2471 86.8943 84.4119C86.5918 84.4946 86.276 84.5181 85.9645 84.481C85.6954 84.4505 85.3284 84.2288 85.0837 84.2573C85.2224 85.146 85.5608 85.9757 85.6648 86.8827Z" fill="#6C63FF"/>
<path d="M111.231 84.6315C112.122 84.0214 113.045 83.3808 113.571 82.4392C113.609 82.3829 113.631 82.3176 113.635 82.2501C113.626 82.1836 113.6 82.1206 113.559 82.0671C113.058 81.2725 112.413 80.5781 111.657 80.0192C111.262 80.2972 110.906 80.6253 110.597 80.9954C110.372 81.2313 109.752 81.6054 109.746 81.9654C109.746 82.1688 109.983 82.4047 110.093 82.5755C110.242 82.7951 110.382 83.0188 110.517 83.2466C110.595 83.3584 111.302 84.5867 111.231 84.6315Z" fill="#6C63FF"/>
<path d="M90.964 89.6057C90.9799 89.8152 90.9223 90.0238 90.8009 90.1955C90.7057 90.291 90.5879 90.3609 90.4584 90.3989C88.5683 91.074 86.3806 90.2321 84.4946 90.8971C84.1072 91.0334 83.7402 91.2306 83.3507 91.3608C82.8865 91.5 82.4075 91.5846 81.9235 91.6129C81.2568 91.676 80.586 91.7167 79.9172 91.735C79.4091 91.7708 78.8985 91.7262 78.4043 91.6028C78.1572 91.5397 77.9262 91.4254 77.7264 91.2674C77.5265 91.1094 77.3622 90.9111 77.2442 90.6856C77.1417 90.4834 77.1212 90.2496 77.1871 90.0328C77.2167 89.9585 77.2587 89.8897 77.3115 89.8294C77.4393 89.6864 77.5894 89.5649 77.756 89.4695L78.4512 89.0221C78.7773 88.7921 79.1315 88.6049 79.5054 88.4649C79.7806 88.3754 80.0722 88.3367 80.3515 88.2615C81.3281 87.9768 82.0744 87.204 82.7676 86.4617L83.7137 85.4551C83.8021 85.3443 83.9143 85.2547 84.0419 85.1927C84.1731 85.1491 84.3126 85.1359 84.4497 85.1541C85.3687 85.2196 86.256 85.5162 87.0289 86.0164C87.2265 86.1642 87.4398 86.2896 87.6651 86.3906C88.2196 86.6061 88.9312 86.4434 89.443 86.1709C89.6856 86.0408 89.6326 85.9676 89.7346 85.7357C89.8365 85.5039 90.0852 85.3554 90.3014 85.5669C90.3666 85.6401 90.4128 85.7281 90.4359 85.8232C90.6398 86.4943 90.5624 87.2162 90.5624 87.9199C90.5564 88.0299 90.5702 88.1401 90.6031 88.2452C90.6552 88.3513 90.7173 88.4521 90.7887 88.5462C90.8032 88.5711 90.8161 88.5969 90.8274 88.6235C90.9521 88.935 90.999 89.2721 90.964 89.6057Z" fill="#514E7F"/>
<path d="M90.964 89.6057C90.9799 89.8152 90.9223 90.0237 90.8009 90.1955C90.7057 90.291 90.5879 90.3609 90.4584 90.3988C88.5683 91.074 86.3806 90.2321 84.4946 90.8971C84.1072 91.0333 83.7402 91.2306 83.3507 91.3607C82.8865 91.5 82.4075 91.5846 81.9235 91.6129C81.2568 91.676 80.586 91.7166 79.9172 91.7349C79.4091 91.7708 78.8985 91.7262 78.4043 91.6028C78.1572 91.5397 77.9262 91.4254 77.7264 91.2674C77.5265 91.1094 77.3622 90.9111 77.2442 90.6856C77.1417 90.4834 77.1212 90.2496 77.1871 90.0328C77.2167 89.9585 77.2587 89.8897 77.3115 89.8294C77.4216 90.0592 77.5011 90.3643 77.5704 90.4741C77.6641 90.6368 77.7914 90.7778 77.944 90.8875C78.0966 90.9973 78.2709 91.0734 78.4553 91.1106C78.7313 91.1275 79.008 91.0923 79.2709 91.0069C80.9836 90.5839 82.8043 90.5778 84.4497 89.9372C85.0145 89.7155 85.5528 89.4207 86.1461 89.2865C86.7394 89.1522 87.3694 89.1888 87.9811 89.138C88.9475 89.0607 89.8834 88.7699 90.8356 88.6174C90.9585 88.9315 91.0026 89.2708 90.964 89.6057Z" fill="#464353"/>
<path d="M115.559 84.5074C115.47 85.2233 115.015 85.8395 114.515 86.3621C114.016 86.8848 113.451 87.3545 113.054 87.9565C112.564 88.7028 112.344 89.6281 111.708 90.2585C111.464 90.4878 111.189 90.6828 110.892 90.8381C110.56 91.0339 110.208 91.1954 109.842 91.3201C108.892 91.6231 107.869 91.5539 106.876 91.4807C106.553 91.4776 106.234 91.4163 105.934 91.2997C105.797 91.2304 105.666 91.1502 105.542 91.0598C105.293 90.9069 105.084 90.6979 104.93 90.4497C104.855 90.3147 104.834 90.1563 104.871 90.0064C104.928 89.8412 105.026 89.693 105.155 89.5752C105.378 89.3435 105.618 89.128 105.872 88.9306C106.222 88.7059 106.536 88.4319 106.806 88.1171C106.972 87.8684 107.094 87.5933 107.167 87.3037C107.312 86.7963 107.4 86.2746 107.43 85.748C107.429 85.398 107.465 85.049 107.538 84.7067C107.689 84.1699 108.089 83.6899 108.044 83.1347C108.026 83.0553 108.033 82.9721 108.064 82.8968C108.112 82.838 108.178 82.7971 108.252 82.7809C108.563 82.657 108.892 82.5809 109.226 82.5552C109.394 82.5436 109.562 82.5694 109.719 82.6306C109.876 82.6918 110.017 82.7869 110.132 82.909C110.27 83.0758 110.362 83.3157 110.566 83.3808C110.667 83.4083 110.773 83.4125 110.876 83.393C111.378 83.3422 111.908 83.2791 112.303 82.9558C112.486 82.7922 112.633 82.5927 112.735 82.3698C112.836 82.1468 112.891 81.9053 112.894 81.6604C112.894 81.4753 112.811 81.2821 113.098 81.2536C113.315 81.2252 113.486 81.457 113.596 81.5994C113.993 82.1301 114.401 82.6853 114.55 83.332C114.608 83.3096 114.669 83.2979 114.732 83.2974C114.859 83.2963 114.984 83.3259 115.098 83.3836C115.211 83.4413 115.308 83.5255 115.382 83.6289C115.544 83.8913 115.607 84.2029 115.559 84.5074Z" fill="#514E7F"/>
<path d="M115.559 84.5074C115.47 85.2233 115.015 85.8395 114.515 86.3621C114.016 86.8847 113.451 87.3545 113.054 87.9565C112.564 88.7028 112.344 89.6281 111.708 90.2585C111.464 90.4878 111.189 90.6828 110.892 90.8381C110.56 91.0339 110.208 91.1954 109.842 91.3201C108.892 91.6231 107.869 91.5539 106.876 91.4807C106.553 91.4776 106.234 91.4163 105.934 91.2997C105.797 91.2304 105.666 91.1502 105.542 91.0598C105.293 90.9069 105.084 90.6979 104.931 90.4497C105.122 90.358 105.33 90.3081 105.542 90.3033C105.983 90.3277 106.305 90.7425 106.727 90.8706C107.328 91.0516 107.928 90.6286 108.537 90.4843C108.935 90.3907 109.353 90.4151 109.746 90.2809C110.074 90.1545 110.377 89.9714 110.642 89.74C111.004 89.4818 111.326 89.1721 111.598 88.8207C111.824 88.4694 112.012 88.0952 112.158 87.7043C112.48 86.9552 112.859 86.2318 113.292 85.5405C113.356 85.431 113.433 85.3299 113.522 85.2395C113.618 85.1521 113.726 85.0911 113.834 85.0138C114.242 84.7067 114.411 84.2003 114.554 83.7041C114.593 83.5533 114.647 83.4068 114.715 83.2669C114.842 83.2658 114.968 83.2954 115.081 83.3531C115.194 83.4108 115.292 83.4949 115.366 83.5984C115.541 83.8669 115.61 84.1909 115.559 84.5074Z" fill="#464353"/>
<path d="M82.3211 51.9612C82.5902 52.978 82.2008 54.0477 81.8827 55.0544C81.4038 56.5707 81.0774 58.1307 80.9081 59.7114C80.8873 60.1137 80.8063 60.5106 80.6675 60.8889C80.5166 61.2285 80.2597 61.5152 80.0844 61.8386C79.6032 62.6886 79.6154 63.7258 79.7194 64.6979C79.7887 65.3384 79.8927 65.977 80.0212 66.6074C80.1782 67.3782 80.3719 68.1835 80.1456 68.9359C80.5248 68.8526 80.7817 69.3427 80.7572 69.727C80.7328 70.1114 80.6084 70.5405 80.7939 70.872C81.2629 71.0428 81.267 71.6854 81.2527 72.1836C81.2605 73.0476 81.37 73.9076 81.5789 74.746C82.2885 78.149 83.0415 81.5424 83.838 84.9264C85.5609 85.4592 87.5733 86.0144 89.2167 85.2761C89.5225 85.1399 89.8283 84.9223 89.8977 84.5928C89.9156 84.4153 89.8933 84.236 89.8324 84.0682L89.0536 81.2414C88.8639 80.5581 88.6743 79.8525 88.7742 79.1509C88.8497 78.6282 89.078 78.0649 88.8211 77.6033C88.7335 77.4446 88.5948 77.3206 88.4929 77.1701C88.0851 76.5742 88.2992 75.7771 88.3318 75.0551C88.3445 74.8931 88.3335 74.73 88.2992 74.5711C88.2433 74.3855 88.1653 74.2073 88.0667 74.0403C87.423 72.7939 87.114 71.4025 87.1696 70.0016C87.194 69.8228 87.1693 69.6408 87.0982 69.4748C87.0488 69.4064 87.0045 69.3343 86.9657 69.2593C86.9353 69.1287 86.9504 68.9917 87.0085 68.8709C86.7749 68.694 86.5639 68.4891 86.3805 68.2608C86.4936 68.1907 86.5893 68.0958 86.6602 67.9834C86.7312 67.871 86.7756 67.7441 86.7901 67.612C86.8047 67.48 86.7889 67.3464 86.7441 67.2214C86.6993 67.0963 86.6266 66.983 86.5314 66.8901C86.6146 66.8734 86.6915 66.834 86.7535 66.7764C86.8156 66.7187 86.8604 66.645 86.883 66.5635C86.9056 66.4819 86.9051 66.3957 86.8816 66.3145C86.858 66.2332 86.8123 66.16 86.7496 66.1031C86.6497 66.0339 86.5172 66.0034 86.4458 65.8997C86.3357 65.7492 86.4254 65.5398 86.5151 65.3791L86.9902 64.523C87.3449 63.8864 87.4245 63.0994 87.8057 62.4893C88.3522 61.6006 88.709 60.6103 89.0617 59.6301L90.4339 55.8536L91.3575 56.6528C91.6652 56.8872 91.923 57.1803 92.116 57.5151C92.2473 57.8459 92.3304 58.1938 92.3627 58.5482C92.7012 60.5981 93.9938 62.3754 94.473 64.3948C94.579 64.8443 94.6504 65.3161 94.9093 65.7004C95.002 65.8184 95.0851 65.9436 95.158 66.0746C95.2255 66.2745 95.2606 66.4839 95.262 66.6949C95.3048 67.1079 95.4362 67.507 95.6473 67.8649C95.8584 68.2228 96.1442 68.5312 96.4854 68.7692C96.9401 69.0803 97.5048 69.2939 97.7516 69.786C97.8009 69.9384 97.8694 70.0839 97.9554 70.2192C98.1756 70.4835 98.6507 70.514 98.7445 70.8455C98.7975 71.0306 98.6996 71.2522 98.8036 71.4149C98.8627 71.4902 98.9408 71.5485 99.0299 71.5837L100.357 72.2447C101.842 72.9849 102.6 74.685 103.695 75.9235C104.073 76.3269 104.408 76.7685 104.694 77.2413C105.167 78.0852 105.385 79.1447 106.184 79.6816C106.399 79.7927 106.595 79.9376 106.764 80.1107C107.014 80.4402 106.923 80.9018 106.945 81.3167C106.967 81.7315 107.285 82.2257 107.681 82.0996C107.542 82.6021 107.542 83.1325 107.681 83.635C109.418 83.546 111.074 82.877 112.383 81.7356C112.77 81.398 113.143 80.9669 113.147 80.4544C113.153 80.366 113.133 80.2777 113.09 80.2002C113.012 80.1001 112.909 80.0223 112.791 79.9745C111.549 79.3034 111.176 77.7476 110.548 76.4848C109.999 75.3703 109.188 74.4105 108.509 73.3753C107.033 71.1485 106.025 68.454 103.793 66.9836C103.301 66.6603 102.731 66.3736 102.484 65.8387C102.347 65.5398 102.331 65.1981 102.223 64.889C102.115 64.5799 101.856 64.2789 101.526 64.2789C101.709 63.8315 101.672 63.2865 101.685 62.8025C101.697 62.5877 101.672 62.3724 101.611 62.166C101.526 61.944 101.416 61.7325 101.283 61.5356C100.7 60.5519 100.409 59.4237 100.443 58.2818C100.459 57.694 100.563 57.088 100.386 56.5267C100.296 56.2441 100.139 55.9858 100.031 55.7133C99.8682 55.2195 99.7823 54.7038 99.7762 54.184L99.6538 52.2297C99.6354 51.5788 99.5507 50.9315 99.401 50.2977C98.9932 48.7806 98.5855 42.4255 97.1888 41.7097C95.7922 40.9939 93.3924 45.8847 91.8204 45.9803C91.1249 46.0092 90.4377 46.1415 89.7814 46.3728C88.7355 46.7633 87.8588 47.4913 87.0044 48.2031L84.1133 50.6251C83.5016 51.1274 82.9959 51.6074 82.3211 51.9612Z" fill="#464353"/>
<path opacity="0.1" d="M78.4349 16.694C78.2884 16.6965 78.1444 16.7317 78.0135 16.7972C77.8825 16.8627 77.768 16.9567 77.6784 17.0723C77.4603 17.355 77.4175 17.7292 77.3624 18.0891C77.1768 19.2295 76.7688 20.3225 76.1615 21.3063" fill="black"/>
<path opacity="0.1" d="M79.4747 17.5055C79.2725 17.51 79.075 17.5669 78.9016 17.6707C78.7282 17.7744 78.5849 17.9215 78.4858 18.0973C78.3508 18.4171 78.2669 18.7561 78.237 19.1019C78.0622 19.8685 77.7251 20.5889 77.2482 21.2148" fill="black"/>
<path d="M127.931 57.2629V54.7371C127.931 52.8778 127.19 51.0948 125.872 49.7803C124.553 48.4657 122.765 47.7272 120.901 47.7272H20.8948C19.0306 47.7272 17.2428 48.4657 15.9244 49.7803C14.6061 51.0948 13.8652 52.8778 13.8646 54.7371V59.3941L127.931 57.2629Z" fill="#33323D"/>
<path d="M48.7157 44.7663C48.7157 44.7663 48.4303 62.4304 51.5702 68.2425C54.7101 74.0546 56.0558 99.3387 56.0558 99.3387C56.0558 99.3387 88.972 102.735 111.91 95.2714C134.847 87.808 183.655 84.7555 183.655 84.7555L175.43 29.4632C175.43 29.4632 134.797 26.8642 111.681 37.8601C88.5662 48.8559 48.7157 44.7663 48.7157 44.7663Z" fill="#8DD070"/>
<path opacity="0.1" d="M48.7157 44.7663C48.7157 44.7663 48.4303 62.4304 51.5702 68.2425C54.7101 74.0546 56.0558 99.3387 56.0558 99.3387C56.0558 99.3387 88.972 102.735 111.91 95.2714C134.847 87.808 183.655 84.7555 183.655 84.7555L175.43 29.4632C175.43 29.4632 134.797 26.8642 111.681 37.8601C88.5662 48.8559 48.7157 44.7663 48.7157 44.7663Z" fill="black"/>
<path d="M56.0007 51.219C56.0007 51.219 54.971 65.794 57.5543 70.451C60.1376 75.108 60.2579 95.8978 60.2579 95.8978C60.2579 95.8978 89.8813 97.2684 110.953 90.1141C132.026 82.9598 176.307 78.3191 176.307 78.3191L171.275 33.1014C171.275 33.1014 134.635 32.7251 113.251 42.7957C91.8672 52.8662 56.0007 51.219 56.0007 51.219Z" fill="#8DD070"/>
<path opacity="0.1" d="M112.926 81.8352C117.141 81.3115 119.645 73.5777 118.519 64.5611C117.393 55.5446 113.063 48.6597 108.848 49.1834C104.633 49.707 102.129 57.4409 103.255 66.4574C104.381 75.474 108.711 82.3588 112.926 81.8352Z" fill="black"/>
<path opacity="0.2" d="M153.153 2.52779C153.153 2.52779 113.677 12.4926 95.0622 30.0326C76.4469 47.5727 37.259 55.878 37.259 55.878C37.259 55.878 42.4216 72.7754 47.1967 77.347C51.9718 81.9186 61.0287 105.574 61.0287 105.574C61.0287 105.574 93.4004 98.7286 112.933 84.5989C132.466 70.4693 177.989 52.6242 177.989 52.6242L153.153 2.52779Z" fill="black"/>
<path d="M36.6658 53.3482C36.6658 53.3482 41.8263 70.2476 46.5973 74.8192C51.3684 79.3908 60.4293 103.044 60.4293 103.044C60.4293 103.044 92.8051 96.2008 112.34 82.0711C131.875 67.9415 177.393 50.1025 177.393 50.1025L152.557 0C152.557 0 113.084 9.96478 94.4689 27.5048C75.8536 45.0449 36.6658 53.3482 36.6658 53.3482Z" fill="#8DD070"/>
<path opacity="0.1" d="M36.6658 53.3482C36.6658 53.3482 41.8263 70.2476 46.5973 74.8192C51.3684 79.3908 60.4293 103.044 60.4293 103.044C60.4293 103.044 92.8051 96.2008 112.34 82.0711C131.875 67.9415 177.393 50.1025 177.393 50.1025L152.557 0C152.557 0 113.084 9.96478 94.4689 27.5048C75.8536 45.0449 36.6658 53.3482 36.6658 53.3482Z" fill="black"/>
<path d="M45.5778 57.2609C45.5778 57.2609 49.0826 71.4495 52.9749 75.0897C56.8672 78.7299 63.3734 98.4764 63.3734 98.4764C63.3734 98.4764 91.9875 90.712 109.842 77.4528C127.697 64.1935 168.418 46.2427 168.418 46.2427L149.719 4.73225C149.719 4.73225 114.734 15.5857 97.4782 31.7165C80.2229 47.8472 45.5778 57.2609 45.5778 57.2609Z" fill="#8DD070"/>
<path opacity="0.1" d="M109.182 68.9763C113.033 67.1879 113.037 59.0607 109.191 50.8238C105.345 42.5869 99.1063 37.3594 95.2558 39.1478C91.4054 40.9362 91.4015 49.0633 95.2471 57.3002C99.0928 65.5371 105.332 70.7647 109.182 68.9763Z" fill="black"/>
<path opacity="0.1" d="M130.631 59.7419V129.902C130.631 130.699 130.474 131.488 130.168 132.224C129.862 132.96 129.414 133.629 128.849 134.192C128.284 134.756 127.613 135.203 126.875 135.507C126.137 135.812 125.346 135.969 124.547 135.968H19.9508C18.338 135.968 16.7916 135.329 15.6514 134.191C14.5112 133.053 13.8707 131.511 13.8707 129.902V52.6689C16.8679 53.7793 16.8679 53.7793 19.9508 53.6858H124.547C126.158 53.6858 127.704 54.3234 128.845 55.4588C129.985 56.5942 130.628 58.1346 130.631 59.7419Z" fill="black"/>
<path d="M130.631 60.6347V130.795C130.63 132.404 129.989 133.947 128.848 135.084C127.707 136.222 126.16 136.861 124.547 136.861H19.9508C18.338 136.861 16.7916 136.221 15.6514 135.084C14.5112 133.946 13.8707 132.403 13.8707 130.795V53.5597C16.8679 54.668 16.8679 54.668 19.9508 54.5765H124.547C126.159 54.5765 127.705 55.2144 128.845 56.3503C129.986 57.4861 130.628 59.027 130.631 60.6347Z" fill="#504F60"/>
<path opacity="0.1" d="M130.333 86.5736V109.011H108.517C105.56 108.971 102.738 107.771 100.661 105.672C98.5841 103.572 97.4197 100.742 97.4197 97.7921C97.4197 94.8427 98.5841 92.0118 100.661 89.9123C102.738 87.8127 105.56 86.6133 108.517 86.5736H130.333Z" fill="black"/>
<path d="M130.631 85.9757V108.417H108.815C105.858 108.377 103.036 107.178 100.959 105.078C98.8818 102.979 97.7174 100.148 97.7174 97.1983C97.7174 94.2489 98.8818 91.418 100.959 89.3185C103.036 87.2189 105.858 86.0195 108.815 85.9798L130.631 85.9757Z" fill="#33323D"/>
<path opacity="0.1" d="M109.861 102.167C112.283 102.167 114.246 100.209 114.246 97.7931C114.246 95.3773 112.283 93.4188 109.861 93.4188C107.438 93.4188 105.475 95.3773 105.475 97.7931C105.475 100.209 107.438 102.167 109.861 102.167Z" fill="black"/>
<path d="M110.158 101.574C112.58 101.574 114.544 99.6152 114.544 97.1993C114.544 94.7834 112.58 92.825 110.158 92.825C107.736 92.825 105.773 94.7834 105.773 97.1993C105.773 99.6152 107.736 101.574 110.158 101.574Z" fill="#6C63FF"/>
<path d="M154.47 111.073C162.798 111.073 169.55 110.099 169.55 108.899C169.55 107.698 162.798 106.725 154.47 106.725C146.142 106.725 139.39 107.698 139.39 108.899C139.39 110.099 146.142 111.073 154.47 111.073Z" fill="#504F60"/>
<path d="M167.444 109.005C167.178 107.872 167.013 106.877 167.013 106.877C167.013 106.877 167.074 105.645 166.52 104.72V104.411V102.133C166.678 101.719 166.871 101.32 167.097 100.939C167.505 100.223 167.097 97.5999 167.097 97.5999C167.097 97.5999 165.574 93.9007 165.943 91.5539C166.312 89.2071 162.815 81.1336 162.815 81.1336C162.837 80.355 162.947 79.5813 163.143 78.8275C163.181 78.669 163.196 78.5061 163.188 78.3435C163.188 78.3232 163.188 78.3049 163.188 78.2845C163.188 78.2642 163.188 78.2967 163.188 78.3028C163.135 76.7552 161.908 73.8553 161.908 73.8553L162.073 68.3279C162.073 68.3279 162.856 65.0741 161.58 60.6916C161.133 59.1643 160.848 57.9421 160.666 56.9985C160.646 56.8928 160.625 56.7952 160.609 56.6915C163.237 56.2847 165.246 55.9593 165.246 55.9593C165.246 55.9593 163.72 49.5961 162.691 48.4817C161.661 47.3673 160.837 43.8674 160.837 43.8674C160.837 43.8674 160.301 39.3751 161.168 38.0614C162.034 36.7477 162.157 34.4822 162.157 34.4822C162.157 34.4822 164.132 33.0587 164.381 32.414C164.63 31.7693 165.04 30.3458 165.04 29.5913C165.04 28.8368 164.793 28.1678 164.874 27.7611C164.956 27.3543 164.297 25.8515 164.628 25.1356C164.713 24.9158 164.757 24.6821 164.758 24.4462C164.759 24.4395 164.759 24.4327 164.758 24.4259C164.761 23.7995 164.703 23.1743 164.585 22.559C164.013 22.0777 163.346 21.7222 162.628 21.5158L162.585 21.345L162.473 20.8976C162.41 20.8563 162.345 20.8183 162.279 20.7837V20.621L162.261 19.9743L162.571 18.5223C163.182 15.9965 159.8 15.6203 159.8 15.6203C159.595 15.2329 159.253 14.9345 158.841 14.7824C158.162 14.5445 158.729 18.5813 159.045 18.8497C159.284 19.0531 160.022 20.3098 160.379 20.9321L160.436 21.0338C160.38 21.0839 160.328 21.1383 160.281 21.1965L160.409 22.073L160.43 22.2072C160.205 22.4849 160.023 22.7939 159.889 23.1244C159.889 23.1244 160.501 23.7996 160.385 24.5479C160.269 25.2963 160.574 26.246 160.589 26.2968C160.552 26.2541 160.118 25.7864 159.683 25.9003C159.249 26.0142 158.036 26.3782 158.036 26.3782C158.036 26.3782 157.131 26.5368 157.22 26.7361C157.31 26.9354 156.609 27.8099 156.609 27.8099L154.174 25.5078C154.15 25.4387 154.123 25.3695 154.103 25.3044C154.004 24.9725 153.935 24.6321 153.899 24.2876C154.164 24.2247 154.425 24.1425 154.678 24.0416C154.934 23.954 155.165 23.8061 155.351 23.6104C155.597 23.3196 155.644 22.9251 155.744 22.5631C155.936 21.8554 156.356 21.227 156.647 20.5539C157.141 19.4164 157.3 18.1624 157.106 16.9381C157.069 16.5608 156.941 16.1981 156.733 15.8806C156.336 15.3356 155.614 15.1139 155.09 14.6787C154.566 14.2435 154.227 13.5785 153.616 13.2552C153.063 12.9603 152.392 12.9949 151.768 13.0966C150.55 13.297 149.379 13.7218 148.316 14.3493C147.962 14.5526 147.57 14.8028 147.162 14.7275C146.812 14.6645 146.551 14.3859 146.331 14.1174C146.333 14.1063 146.336 14.0955 146.341 14.0849C146.331 14.075 146.322 14.0641 146.314 14.0524C146.056 14.6235 145.927 15.2441 145.935 15.8704C145.935 15.9681 145.935 16.0738 145.947 16.1612V16.2629C145.947 16.2914 145.947 16.3199 145.947 16.3463C145.947 16.3897 145.941 16.4328 145.929 16.4744C145.878 16.5988 145.8 16.7106 145.701 16.8018C145.626 16.8866 145.558 16.977 145.497 17.0723C145.497 17.0398 145.517 17.0072 145.529 16.9727C145.374 17.1991 145.286 17.465 145.276 17.7393C145.265 17.939 145.331 18.1355 145.46 18.2884C145.582 18.4066 145.715 18.5129 145.858 18.6057C145.809 18.8741 145.785 19.1463 145.784 19.4191C145.789 20.2278 146.002 21.0216 146.405 21.7238C146.807 22.426 147.384 23.0127 148.08 23.4274C148.109 23.4945 148.135 23.5636 148.162 23.6308C148.473 24.4442 148.708 25.4 148.604 26.2745C148.604 26.3375 148.586 26.4026 148.575 26.4656C148.565 26.5287 148.514 26.5327 148.488 26.5673C148.488 26.5673 144.465 26.608 143.519 25.7539C142.573 24.8997 141.129 27.8424 141.129 27.8424C141.129 27.8424 139.688 28.121 139.398 27.8424C139.109 27.5638 137.423 27.8038 137.423 27.8038C136.732 27.191 135.833 26.8637 134.909 26.8886C134.349 26.4642 133.731 26.1218 133.074 25.8718L133.029 25.8555C132.739 25.7501 132.429 25.7112 132.121 25.7417C132.121 25.7417 130.144 24.1148 129.567 23.2362C128.99 22.3577 126.243 19.1141 126.231 19.0998V18.9432L126.2 18.4714C126.119 18.4842 126.036 18.491 125.954 18.4918C125.939 18.445 125.919 18.3901 125.899 18.3271C125.74 17.8669 125.545 17.4201 125.316 16.991C125.316 16.991 125.316 16.3951 125.489 16.2446C125.662 16.0941 125.417 13.908 125.417 13.908C125.417 13.908 123.635 9.75328 122.039 12.8546C122.039 12.8546 119.021 14.8618 121.554 17.2004C121.554 17.2004 122.573 17.6885 122.708 18.0749C122.802 18.325 123.144 19.0266 123.374 19.4984L123.478 19.7018L123.45 19.7262L123.487 20.1166L123.503 20.2671C123.026 20.5376 122.702 20.8061 122.781 21.0074C122.922 21.3519 123.018 21.7126 123.069 22.0811C123.069 22.0811 126.572 26.4575 127.024 28.3264C127.024 28.3264 136.417 33.8945 139.506 34.291L138.96 37.0669C138.88 37.8202 138.839 38.577 138.838 39.3344C138.878 39.9303 138.467 42.635 138.467 42.635C138.467 42.635 137.93 46.6128 137.478 47.17C137.025 47.7272 137.107 50.1127 137.107 50.1127C137 51.2546 136.795 52.3854 136.495 53.4926C136.042 55.0035 136.371 56.8745 136.371 56.8745C136.371 56.8745 134.807 60.4537 138.554 58.0275C138.554 58.0275 140.389 57.9137 142.514 57.8405C142.514 57.9096 142.514 57.9808 142.514 58.0438C142.514 58.3163 142.514 58.6112 142.499 58.9203C142.471 60.9702 142.459 63.801 142.552 65.9323C142.718 69.7107 143.872 77.1884 143.872 77.1884V80.9526C143.797 81.3057 143.76 81.6656 143.762 82.0264C143.737 83.3508 144.091 84.6549 144.781 85.7866L145.071 88.292C145.071 88.292 145.747 89.9433 145.76 90.9357C145.757 91.0157 145.748 91.0953 145.731 91.1737C145.705 91.3 145.694 91.4291 145.699 91.558C145.66 92.6968 146.347 95.4219 146.347 95.4219C146.347 95.4219 146.388 98.1653 146.8 98.3259C147.152 98.4622 146.329 99.9061 146.084 100.321C146.077 100.296 146.073 100.27 146.07 100.244L146.019 100.325C145.934 100.547 145.89 100.783 145.89 101.02C145.867 101.208 145.898 101.398 145.978 101.568C146.059 101.739 146.187 101.883 146.347 101.984C147.13 102.462 147.55 102.859 146.885 103.018C146.641 103.055 146.398 103.106 146.159 103.17C146.159 103.14 146.135 103.107 146.125 103.079C146.031 103.115 145.953 103.183 145.903 103.27C145.854 103.358 145.836 103.46 145.853 103.558C145.86 103.881 145.943 104.198 146.096 104.482C146.755 105.954 147.211 106.515 147.211 106.515L147.527 106.481C147.481 106.601 147.419 106.715 147.344 106.82C147.224 106.991 147.064 107.13 146.879 107.227C146.706 107.33 146.514 107.396 146.314 107.42C146.091 107.428 145.872 107.482 145.671 107.579C145.47 107.676 145.292 107.815 145.148 107.986C144.74 108.516 144.479 109.238 145.291 109.873L148.237 110.89C148.237 110.89 153.306 111.547 153.037 110.412C152.767 109.277 152.604 108.285 152.604 108.285C152.626 107.592 152.486 106.903 152.197 106.273C152.143 106.171 152.083 106.071 152.017 105.976L152.197 105.958C152.197 105.958 152.568 103.451 153.061 102.975C153.175 102.865 153.202 102.771 153.175 102.714C153.226 102.578 153.096 102.499 152.931 102.452L152.894 102.552C152.732 102.517 152.568 102.498 152.402 102.497C152.402 102.497 152.237 101.185 152.774 100.707C152.817 100.653 152.848 100.59 152.866 100.523C152.884 100.456 152.888 100.386 152.878 100.317C152.882 100.137 152.862 99.9571 152.82 99.782C152.815 99.7933 152.809 99.8041 152.802 99.8145C152.533 98.6228 151.62 96.7295 151.62 96.7295C151.62 96.7295 151.579 95.5378 151.909 95.0599C152.239 94.582 151.866 88.5767 151.866 88.5767C151.866 88.5767 151.991 85.6747 151.62 84.3224C151.248 82.97 152.072 81.3777 152.072 81.3777C152.072 81.3777 152.072 81.3472 152.072 81.2923V81.2719L152.025 80.8144C152.024 80.8238 152.024 80.8334 152.025 80.8428C151.942 80.0741 151.785 78.6811 151.668 78.0385C151.503 77.1233 151.711 72.751 151.711 72.751L152.451 70.8801L153.771 74.1034L155.171 78.3984C155.171 78.3984 155.865 79.3054 155.881 80.2287C155.881 80.2734 155.881 80.3182 155.881 80.3629C155.87 80.4581 155.864 80.5538 155.865 80.6496C155.84 81.1923 155.989 81.7287 156.291 82.181C156.291 82.181 156.662 84.2146 157.239 84.725C157.816 85.2355 157.816 86.236 157.816 86.236C157.816 86.236 158.515 89.1807 158.835 89.6932C159.113 90.1284 159.127 91.3201 159.125 91.6922C159.125 91.7593 159.125 91.798 159.125 91.798C159.125 91.798 159.223 92.8514 159.219 93.734C159.219 93.8438 159.219 93.9496 159.219 94.0492C159.219 94.0418 159.219 94.0343 159.219 94.0268C159.218 94.268 159.19 94.5083 159.133 94.7427L159.121 94.7833C159.121 94.7325 159.121 94.6837 159.135 94.6349C158.992 95.2343 158.923 95.849 158.931 96.4652C158.913 97.5226 159.074 98.7754 159.716 99.5156C160.829 100.789 161.529 100.63 161.529 100.63C161.529 100.63 160.994 102.22 160.334 102.54C160.309 102.551 160.285 102.566 160.264 102.584C160.264 102.552 160.252 102.521 160.248 102.491C160.175 102.57 160.118 102.664 160.083 102.766C160.048 102.868 160.035 102.977 160.044 103.085C159.997 103.784 160.44 104.915 160.86 105.442C161.016 105.594 161.207 105.706 161.416 105.767C161.383 105.79 161.349 105.811 161.312 105.83C161.239 105.87 161.164 105.906 161.086 105.938C160.979 105.983 160.866 106.013 160.75 106.025C160.526 106.031 160.307 106.085 160.105 106.182C159.904 106.28 159.726 106.419 159.584 106.591C159.176 107.119 158.915 107.841 159.726 108.476L162.672 109.493C162.672 109.493 167.709 110.137 167.444 109.005Z" fill="url(#paint0_linear)"/>
<path d="M148.092 110.884L145.238 109.867C144.451 109.232 144.701 108.51 145.099 107.98C145.236 107.81 145.407 107.672 145.602 107.575C145.797 107.477 146.011 107.422 146.229 107.414C146.422 107.39 146.608 107.324 146.773 107.221C146.954 107.123 147.109 106.984 147.226 106.814C147.434 106.485 147.546 106.104 147.55 105.714C147.55 105.714 150.682 104.799 151.538 105.714C151.691 105.88 151.819 106.067 151.917 106.269C152.202 106.901 152.341 107.588 152.325 108.281C152.325 108.281 152.484 109.273 152.743 110.408C153.002 111.542 148.092 110.884 148.092 110.884Z" fill="#2D293D"/>
<path d="M162.046 109.48L159.192 108.464C158.405 107.829 158.656 107.107 159.053 106.578C159.189 106.408 159.36 106.27 159.555 106.172C159.75 106.075 159.963 106.02 160.181 106.013C160.294 106.002 160.404 105.972 160.507 105.926C160.583 105.894 160.656 105.858 160.727 105.818C161.525 105.381 161.504 104.307 161.504 104.307C161.504 104.307 164.634 103.392 165.492 104.307C165.607 104.431 165.708 104.567 165.792 104.714C166.328 105.639 166.269 106.873 166.269 106.873C166.269 106.873 166.428 107.868 166.677 109C166.926 110.133 162.046 109.48 162.046 109.48Z" fill="#2D293D"/>
<path opacity="0.1" d="M151.54 105.712C151.693 105.878 151.821 106.065 151.919 106.267L147.23 106.81C147.438 106.481 147.55 106.1 147.554 105.71C147.554 105.71 150.684 104.797 151.54 105.712Z" fill="black"/>
<path opacity="0.1" d="M165.796 104.718V105.594C165.066 106.792 161.537 106.53 160.511 105.93C160.587 105.898 160.66 105.862 160.731 105.822C161.529 105.385 161.508 104.311 161.508 104.311C161.508 104.311 164.638 103.396 165.496 104.311C165.611 104.435 165.712 104.571 165.796 104.718Z" fill="black"/>
<path d="M166.353 100.939C166.134 101.321 165.948 101.72 165.796 102.133V105.275C164.997 106.587 160.852 106.149 160.291 105.433C159.73 104.718 159.145 102.855 159.775 102.531C160.405 102.208 160.931 100.622 160.931 100.622C160.931 100.622 160.252 100.781 159.176 99.5075C158.099 98.2344 158.419 95.4118 158.619 94.7366C158.819 94.0614 158.619 91.7939 158.619 91.7939C158.619 91.7939 158.66 90.2016 158.342 89.6851C158.024 89.1685 157.345 86.2279 157.345 86.2279C157.345 86.2279 157.345 85.2334 156.786 84.7169C156.227 84.2004 155.869 82.1708 155.869 82.1708C155.542 81.6636 155.401 81.0593 155.471 80.4605C155.589 79.4661 154.792 78.3923 154.792 78.3923L153.436 74.0953L152.16 70.874L151.442 72.7429C151.442 72.7429 151.238 77.1172 151.403 78.0303C151.569 78.9434 151.811 81.3716 151.811 81.3716C151.811 81.3716 151.014 82.9619 151.373 84.3142C151.732 85.6666 151.601 88.5727 151.601 88.5727C151.601 88.5727 151.96 94.5759 151.64 95.0538C151.32 95.5317 151.361 96.7255 151.361 96.7255C151.361 96.7255 152.992 100.223 152.478 100.701C151.964 101.179 152.119 102.491 152.119 102.491C152.119 102.491 153.234 102.491 152.757 102.969C152.28 103.447 151.919 105.952 151.919 105.952L147.097 106.515C147.097 106.515 146.657 105.96 146.019 104.482C145.38 103.003 146.137 103.17 146.779 103.009C147.421 102.849 147.016 102.454 146.257 101.976C145.499 101.498 145.939 100.425 145.939 100.425C145.939 100.425 147.095 98.4764 146.696 98.3178C146.296 98.1592 146.257 95.4138 146.257 95.4138C146.257 95.4138 145.46 92.16 145.66 91.2774C145.86 90.3948 145.022 88.2961 145.022 88.2961L144.742 85.7907C143.889 84.3689 143.578 82.6883 143.866 81.0564V77.1925C143.866 77.1925 142.748 69.7169 142.589 65.9384C142.487 63.5184 142.516 60.2157 142.548 58.1557C142.569 57.0006 142.589 56.2339 142.589 56.2339L159.814 54.4443C159.814 54.4443 159.798 55.2374 160.126 56.9965C160.303 57.9401 160.578 59.1623 161.011 60.6896C162.246 65.0639 161.49 68.3238 161.49 68.3238L161.329 73.8533C161.329 73.8533 162.844 77.5504 162.526 78.8234C162.333 79.5793 162.225 80.3541 162.203 81.1336C162.203 81.1336 165.592 89.2072 165.233 91.554C164.874 93.9008 166.349 97.5999 166.349 97.5999C166.349 97.5999 166.752 100.223 166.353 100.939Z" fill="#464353"/>
<path opacity="0.05" d="M156.505 80.2205L161.749 79.523C161.749 79.523 158.778 82.547 156.505 80.2205Z" fill="black"/>
<path opacity="0.1" d="M160.99 74.4125C160.99 74.4125 161.17 76.2631 160.034 76.9586C160.034 76.9586 162.067 76.6414 160.99 74.4125Z" fill="black"/>
<path opacity="0.1" d="M160.668 68.5272C160.668 68.5272 156.285 72.1267 154.69 71.8278C153.096 71.5288 160.668 68.5272 160.668 68.5272Z" fill="black"/>
<path opacity="0.1" d="M150.005 81.9085C150.005 81.9085 146.675 82.6629 146.575 83.997C146.475 85.331 150.005 81.9085 150.005 81.9085Z" fill="black"/>
<path opacity="0.05" d="M150.737 98.4947C150.737 98.4947 146.033 99.3692 147.368 99.965C148.704 100.561 150.898 101.039 150.898 101.039C150.898 101.039 152.417 101.118 150.737 98.4947Z" fill="black"/>
<g opacity="0.05">
<path opacity="0.05" d="M146.418 100.913C146.3 100.839 146.2 100.74 146.125 100.622C146.051 100.505 146.004 100.372 145.988 100.233L145.939 100.317C145.939 100.317 145.501 101.391 146.259 101.866C146.345 101.921 146.428 101.976 146.504 102.029C146.645 102.003 146.795 101.982 146.94 101.946C147.582 101.787 147.177 101.391 146.418 100.913Z" fill="black"/>
<path opacity="0.05" d="M152.478 100.593C152.608 100.475 152.604 100.17 152.525 99.78C152.321 100.087 152.262 100.567 152.258 100.931C152.307 100.805 152.382 100.69 152.478 100.593Z" fill="black"/>
<path opacity="0.05" d="M151.754 80.8083C151.581 81.2787 151.474 81.7707 151.436 82.2704C151.527 81.9252 151.649 81.589 151.801 81.2658L151.754 80.8083Z" fill="black"/>
<path opacity="0.05" d="M162.528 78.7217C162.559 78.5789 162.573 78.4328 162.57 78.2865C162.511 78.5835 162.471 78.858 162.44 79.1C162.466 78.976 162.495 78.858 162.528 78.7217Z" fill="black"/>
<path opacity="0.05" d="M151.642 94.9481C151.707 94.8505 151.744 94.521 151.76 94.0634C151.613 94.4175 151.534 94.7965 151.53 95.1799C151.558 95.0984 151.595 95.0205 151.642 94.9481Z" fill="black"/>
<path opacity="0.05" d="M152.621 102.448C152.373 103.246 152.19 104.062 152.072 104.888L147.25 105.444C147.25 105.444 146.81 104.888 146.172 103.41C146.12 103.296 146.074 103.179 146.035 103.06C145.745 103.192 145.627 103.491 146.01 104.364C146.649 105.836 147.091 106.397 147.091 106.397L151.913 105.84C151.913 105.84 152.272 103.335 152.749 102.857C152.994 102.627 152.843 102.507 152.621 102.448Z" fill="black"/>
<path opacity="0.05" d="M146.259 95.306C146.259 95.306 146.298 98.0494 146.698 98.208C146.901 97.7545 147.034 97.3234 146.855 97.2522C146.447 97.0936 146.416 94.3482 146.416 94.3482C146.416 94.3482 145.619 91.0944 145.819 90.2118C146.019 89.3292 145.181 87.2305 145.181 87.2305L144.901 84.725C144.048 83.3033 143.737 81.6226 144.025 79.9907V76.1268C144.025 76.1268 142.907 68.6512 142.748 64.8728C142.646 62.4527 142.675 59.1501 142.707 57.0901C142.707 56.7179 142.72 56.3885 142.726 56.1098L142.589 56.1241C142.589 56.1241 142.567 56.8887 142.548 58.0459C142.516 60.1059 142.485 63.4085 142.589 65.8265C142.748 69.605 143.863 77.0827 143.863 77.0827V80.9466C143.577 82.578 143.889 84.2578 144.742 85.6788L145.02 88.1842C145.02 88.1842 145.858 90.2911 145.658 91.1676C145.458 92.0441 146.259 95.306 146.259 95.306Z" fill="black"/>
<path opacity="0.05" d="M160.454 104.372C160.062 103.806 159.801 103.161 159.69 102.483C159.198 102.926 159.763 104.646 160.301 105.33C160.858 106.046 165.005 106.483 165.806 105.169V104.413C164.72 105.476 160.98 105.049 160.454 104.372Z" fill="black"/>
<path opacity="0.05" d="M166.514 99.8776C166.295 100.26 166.108 100.659 165.955 101.071V101.635C166.047 101.431 166.175 101.159 166.363 100.837C166.489 100.524 166.549 100.188 166.538 99.8512C166.538 99.8512 166.52 99.8695 166.514 99.8776Z" fill="black"/>
<path opacity="0.05" d="M160.699 100.506C160.85 100.2 160.982 99.8838 161.092 99.5603C161.092 99.5603 160.413 99.719 159.337 98.4459C158.554 97.5206 158.509 95.7717 158.621 94.6288C158.417 95.306 158.101 98.1287 159.178 99.4017C159.881 100.233 160.413 100.453 160.699 100.506Z" fill="black"/>
<path opacity="0.05" d="M158.619 91.6861C158.689 92.4697 158.716 93.2566 158.699 94.0431C158.719 93.9189 158.746 93.796 158.78 93.675C158.984 92.9978 158.78 90.7324 158.78 90.7324C158.78 90.7324 158.821 89.14 158.501 88.6235C158.181 88.107 157.514 85.1623 157.514 85.1623C157.514 85.1623 157.514 84.1678 156.955 83.6513C156.397 83.1347 156.038 81.1052 156.038 81.1052C155.708 80.599 155.564 79.9948 155.63 79.3949C155.75 78.4004 154.953 77.3267 154.953 77.3267L153.597 73.0317L152.321 69.8104L151.601 71.6813C151.601 71.6813 151.601 71.9172 151.577 72.2914L152.16 70.7723L153.436 73.9875L154.792 78.2825C154.792 78.2825 155.589 79.3563 155.469 80.3507C155.403 80.9506 155.547 81.5548 155.877 82.061C155.877 82.061 156.236 84.0946 156.794 84.6071C157.353 85.1196 157.351 86.1181 157.351 86.1181C157.351 86.1181 158.03 89.0607 158.348 89.5752C158.666 90.0897 158.619 91.6861 158.619 91.6861Z" fill="black"/>
</g>
<path d="M161.967 18.5162L161.667 19.9682L161.686 20.6149L161.698 21.0908L160.034 21.2616L159.849 20.9179C159.504 20.2956 158.788 19.0307 158.558 18.8355C158.25 18.5792 157.702 14.5404 158.354 14.7804C158.756 14.9351 159.085 15.2329 159.28 15.6162C159.28 15.6162 162.556 15.9904 161.967 18.5162Z" fill="#FFCDD3"/>
<path opacity="0.1" d="M161.698 21.0908L160.034 21.2616L159.849 20.9179C160.072 20.6638 160.378 20.4949 160.712 20.4401C161.047 20.3852 161.39 20.4477 161.684 20.6169L161.698 21.0908Z" fill="black"/>
<path d="M162.118 21.8778L159.924 22.3841L159.877 22.0588L159.753 21.1823C159.753 21.1823 160.621 20.0272 161.877 20.8935L161.987 21.3389L162.118 21.8778Z" fill="#6C63FF"/>
<path d="M126.58 18.6748L124.237 19.9275L124.033 19.4883C123.811 19.0226 123.478 18.321 123.387 18.0647C123.248 17.6783 122.271 17.1903 122.271 17.1903C119.825 14.8536 122.74 12.8444 122.74 12.8444C124.286 9.74312 126.003 13.8978 126.003 13.8978C126.003 13.8978 126.243 16.088 126.074 16.2345C125.905 16.3809 125.905 16.9808 125.905 16.9808C126.128 17.4106 126.317 17.8574 126.47 18.3169C126.541 18.5386 126.58 18.6748 126.58 18.6748Z" fill="#FFCDD3"/>
<path opacity="0.1" d="M126.58 18.6748L124.237 19.9275L124.033 19.4883C124.363 19.2117 125.536 18.2681 125.921 18.3067C126.105 18.3296 126.291 18.3344 126.476 18.321C126.541 18.5386 126.58 18.6748 126.58 18.6748Z" fill="black"/>
<path d="M126.818 19.3805L124.186 20.6739L124.133 20.1105L124.096 19.7201C124.096 19.7201 125.621 18.4165 126.072 18.4674C126.3 18.5003 126.531 18.5003 126.759 18.4674L126.79 18.9392L126.818 19.3805Z" fill="#6C63FF"/>
<path d="M155.587 28.1617C155.587 28.1617 144.112 29.453 146.257 28.7575C147.75 28.2715 148.343 27.334 148.467 26.2765C148.569 25.3959 148.341 24.4462 148.041 23.6328C147.772 22.9112 147.43 22.2183 147.022 21.5646C147.022 21.5646 155.789 16.753 154.038 21.1274C153.768 21.789 153.6 22.4877 153.54 23.1996C153.487 23.9071 153.564 24.6182 153.766 25.2983C154.097 26.4019 154.727 27.3928 155.587 28.1617Z" fill="#FFCDD3"/>
<path opacity="0.1" d="M154.031 21.1213C153.761 21.7829 153.594 22.4816 153.534 23.1935C152.708 23.887 151.803 23.8402 150.639 23.8402C149.746 23.8402 148.755 24.0558 148.041 23.6267C147.771 22.9051 147.43 22.2122 147.022 21.5585C147.022 21.5585 155.787 16.7469 154.031 21.1213Z" fill="black"/>
<path d="M150.484 24.1453C153.104 24.1453 155.228 22.0266 155.228 19.413C155.228 16.7995 153.104 14.6808 150.484 14.6808C147.863 14.6808 145.739 16.7995 145.739 19.413C145.739 22.0266 147.863 24.1453 150.484 24.1453Z" fill="#FFCDD3"/>
<path opacity="0.1" d="M155.587 28.1617C155.587 28.1617 144.112 29.453 146.257 28.7575C147.75 28.2715 148.343 27.334 148.467 26.2765C149.038 25.6664 150.186 25.2129 150.914 24.977C151.587 24.7513 152.314 24.7392 152.994 24.9425C153.261 25.0228 153.516 25.1406 153.75 25.2922C154.084 26.3999 154.72 27.3932 155.587 28.1617Z" fill="black"/>
<path opacity="0.1" d="M162.118 21.8778L159.924 22.3841L159.877 22.0588C160.112 21.7369 160.441 21.4952 160.818 21.3663C161.196 21.2375 161.604 21.2279 161.987 21.3389L162.118 21.8778Z" fill="black"/>
<path opacity="0.1" d="M126.818 19.3805L124.186 20.6739L124.133 20.1105C124.986 19.6533 125.872 19.2611 126.784 18.9371L126.818 19.3805Z" fill="black"/>
<path opacity="0.1" d="M160.126 57.0006C155.679 57.7083 149.358 58.6112 148.355 58.3062C147.521 58.054 144.863 58.0804 142.548 58.1597C142.569 57.0046 142.589 56.238 142.589 56.238L159.814 54.4484C159.814 54.4484 159.798 55.2415 160.126 57.0006Z" fill="black"/>
<path d="M164.558 55.9594C164.558 55.9594 149.925 58.4648 148.355 57.993C146.785 57.5212 138.721 58.0316 138.721 58.0316C135.092 60.4577 136.607 56.8786 136.607 56.8786C136.607 56.8786 136.289 55.0097 136.727 53.4987C137.022 52.3893 137.223 51.2574 137.329 50.1147C137.329 50.1147 137.249 47.7272 137.688 47.17C138.126 46.6128 138.646 42.6371 138.646 42.6371C138.646 42.6371 139.044 39.9323 139.005 39.3365C138.966 38.7406 139.123 37.069 139.123 37.069L139.643 34.2849C136.652 33.8884 127.56 28.3203 127.56 28.3203C127.122 26.4514 123.733 22.0771 123.733 22.0771C123.684 21.7092 123.59 21.3487 123.454 21.0033C123.215 20.3668 126.804 19.0937 126.804 19.0937C126.804 19.0937 129.475 22.3475 130.034 23.2301C130.592 24.1127 132.505 25.7356 132.505 25.7356C132.802 25.7051 133.102 25.7441 133.381 25.8495L133.428 25.8637C134.069 26.1146 134.67 26.4572 135.212 26.8805C136.112 26.8592 136.984 27.1874 137.645 27.7956C137.645 27.7956 139.276 27.5557 139.559 27.8343C139.843 28.1129 141.233 27.8343 141.233 27.8343C141.233 27.8343 142.628 24.8916 143.545 25.7457C144.463 26.5999 148.355 26.5592 148.355 26.5592C148.873 25.8718 150.135 25.3797 150.924 25.1356C151.597 24.9109 152.324 24.8988 153.004 25.1011C153.297 25.1884 153.573 25.326 153.82 25.5078L156.187 27.8139C156.187 27.8139 156.864 26.9374 156.784 26.7402C156.705 26.5429 157.581 26.3823 157.581 26.3823C157.581 26.3823 158.737 26.0243 159.176 25.9044C159.614 25.7844 160.016 26.2582 160.052 26.3009C160.038 26.2501 159.738 25.2841 159.849 24.552C159.959 23.8199 159.369 23.1285 159.369 23.1285C160.764 19.7079 163.914 22.5712 163.914 22.5712C163.914 22.5712 164.273 24.4401 163.955 25.156C163.637 25.8718 164.273 27.3828 164.193 27.7814C164.114 28.18 164.355 28.8552 164.355 29.6117C164.355 30.3682 163.947 31.7978 163.716 32.4343C163.486 33.0709 161.563 34.5025 161.563 34.5025C161.563 34.5025 161.443 36.77 160.605 38.0817C159.767 39.3934 160.293 43.8796 160.293 43.8796C160.293 43.8796 161.09 47.3795 162.087 48.4939C163.084 49.6083 164.558 55.9594 164.558 55.9594Z" fill="#3F3D56"/>
<path opacity="0.1" d="M143.227 29.7906C143.227 29.7906 142.789 28.4789 142.389 28.3671C141.993 28.2215 141.606 28.0489 141.233 27.8505L141.49 27.3604C141.49 27.3604 142.987 27.7672 143.227 28.2085C143.468 28.6498 143.227 29.7906 143.227 29.7906Z" fill="black"/>
<path opacity="0.1" d="M135.212 26.8886C135.133 27.2954 131.583 27.6431 131.583 27.6431L133.377 25.8495L133.422 25.8657C134.066 26.118 134.669 26.4626 135.212 26.8886Z" fill="black"/>
<path d="M124.944 21.7476C125.12 21.7476 125.262 21.6056 125.262 21.4304C125.262 21.2552 125.12 21.1131 124.944 21.1131C124.769 21.1131 124.626 21.2552 124.626 21.4304C124.626 21.6056 124.769 21.7476 124.944 21.7476Z" fill="#575988"/>
<path d="M125.352 22.3841C125.528 22.3841 125.67 22.2421 125.67 22.0669C125.67 21.8917 125.528 21.7496 125.352 21.7496C125.177 21.7496 125.034 21.8917 125.034 22.0669C125.034 22.2421 125.177 22.3841 125.352 22.3841Z" fill="#575988"/>
<path d="M125.752 22.9719C125.928 22.9719 126.07 22.8298 126.07 22.6546C126.07 22.4794 125.928 22.3374 125.752 22.3374C125.576 22.3374 125.434 22.4794 125.434 22.6546C125.434 22.8298 125.576 22.9719 125.752 22.9719Z" fill="#575988"/>
<path d="M126.17 23.6064C126.346 23.6064 126.488 23.4643 126.488 23.2891C126.488 23.1139 126.346 22.9719 126.17 22.9719C125.994 22.9719 125.852 23.1139 125.852 23.2891C125.852 23.4643 125.994 23.6064 126.17 23.6064Z" fill="#575988"/>
<path d="M163.755 23.5128C163.898 23.5128 164.014 23.3972 164.014 23.2545C164.014 23.1119 163.898 22.9963 163.755 22.9963C163.612 22.9963 163.496 23.1119 163.496 23.2545C163.496 23.3972 163.612 23.5128 163.755 23.5128Z" fill="#575988"/>
<path d="M163.796 24.1005C163.939 24.1005 164.055 23.9849 164.055 23.8423C164.055 23.6996 163.939 23.584 163.796 23.584C163.653 23.584 163.537 23.6996 163.537 23.8423C163.537 23.9849 163.653 24.1005 163.796 24.1005Z" fill="#575988"/>
<path d="M163.831 24.6862C163.974 24.6862 164.09 24.5706 164.09 24.4279C164.09 24.2853 163.974 24.1697 163.831 24.1697C163.688 24.1697 163.572 24.2853 163.572 24.4279C163.572 24.5706 163.688 24.6862 163.831 24.6862Z" fill="#575988"/>
<path opacity="0.1" d="M143.242 40.5689C143.203 40.5221 152.192 51.8433 159.17 45.3011C159.176 45.3031 148.151 46.7938 143.242 40.5689Z" fill="black"/>
<path opacity="0.1" d="M138.083 46.4542C138.083 46.4542 143.462 46.6006 144.025 48.1441V49.7507C143.871 49.8354 143.699 49.8799 143.524 49.8799C143.349 49.8799 143.177 49.8354 143.024 49.7507C142.481 49.4578 139.229 47.8106 138.083 48.6037V46.4542Z" fill="black"/>
<path d="M138.183 46.4542C138.183 46.4542 143.327 46.5945 143.866 48.0668V49.5961C143.719 49.6773 143.554 49.7199 143.386 49.7199C143.219 49.7199 143.054 49.6773 142.907 49.5961C142.389 49.3196 139.28 47.7476 138.183 48.5041V46.4542Z" fill="#3F3D56"/>
<path opacity="0.1" d="M141.019 34.8056C141.569 36.0742 142.269 37.2725 143.105 38.3746C144.014 39.5927 145.116 40.6553 146.367 41.5206C146.367 41.5206 141.109 35.5417 141.019 34.8056Z" fill="black"/>
<path opacity="0.1" d="M139.26 28.5725C139.26 28.5725 140.157 32.4364 142.469 33.7481L139.26 28.5725Z" fill="black"/>
<path opacity="0.1" d="M137.883 28.9629C137.861 28.8918 137.086 32.0134 140.864 33.7481C140.864 33.7481 139.26 33.2051 137.883 28.9629Z" fill="black"/>
<path opacity="0.1" d="M161.37 26.3721C161.31 26.3721 163.233 27.5923 163.757 28.1617C163.757 28.1617 162.505 26.2908 161.37 26.3721Z" fill="black"/>
<path d="M149.201 23.7019C149.202 23.8052 149.224 23.9071 149.267 24.0014C149.309 24.0956 149.37 24.1801 149.447 24.2495C149.523 24.3189 149.614 24.3717 149.712 24.4045C149.81 24.4373 149.914 24.4494 150.017 24.4401C151.463 24.5296 152.969 24.5927 154.299 24.0334C154.548 23.9446 154.772 23.7967 154.951 23.6023C155.188 23.3115 155.235 22.917 155.33 22.555C155.518 21.8473 155.918 21.2189 156.205 20.5457C156.691 19.4085 156.854 18.1596 156.676 16.9361C156.638 16.561 156.514 16.1997 156.313 15.8806C155.93 15.3336 155.23 15.1119 154.723 14.6767C154.215 14.2415 153.889 13.5765 153.296 13.2532C152.761 12.9562 152.107 12.9928 151.505 13.0945C150.322 13.2949 149.189 13.7195 148.166 14.3452C147.821 14.5486 147.444 14.7987 147.048 14.7235C146.702 14.6584 146.449 14.3676 146.233 14.0951C145.955 14.7459 145.838 15.4539 145.892 16.1592C145.907 16.2627 145.904 16.368 145.882 16.4704C145.832 16.594 145.756 16.7057 145.66 16.7978C145.303 17.2045 145.081 17.8654 145.433 18.2843C145.586 18.4653 145.823 18.565 145.972 18.75C146.239 19.0815 146.149 19.5635 146.143 19.9865C146.128 20.1342 146.166 20.2824 146.249 20.4054C146.326 20.4771 146.421 20.5277 146.523 20.5523C146.626 20.5769 146.733 20.5746 146.834 20.5457C147.036 20.4851 147.248 20.465 147.458 20.4868C147.679 20.5585 147.87 20.7016 148 20.8935C148.659 21.7497 148.92 22.6811 149.201 23.7019Z" fill="#2D293D"/>
<g opacity="0.1">
<path opacity="0.1" d="M155.12 23.2423C154.941 23.4367 154.717 23.5847 154.468 23.6735C153.13 24.2287 151.626 24.1656 150.186 24.0802C150.032 24.0817 149.879 24.0476 149.74 23.9806C149.52 23.8524 149.436 23.584 149.369 23.34C149.087 22.3231 148.828 21.3897 148.16 20.5417C148.031 20.3461 147.84 20.1993 147.617 20.1248C147.407 20.1051 147.196 20.1251 146.993 20.1838C146.892 20.2129 146.785 20.2155 146.682 20.1913C146.58 20.1671 146.485 20.1168 146.408 20.0455C146.325 19.9224 146.287 19.7743 146.302 19.6266C146.302 19.1995 146.398 18.7216 146.131 18.3901C145.982 18.205 145.745 18.1054 145.593 17.9224C145.493 17.7874 145.432 17.6281 145.415 17.4612C145.399 17.2943 145.429 17.1262 145.501 16.9747C145.246 17.3814 145.138 17.8919 145.434 18.2417C145.586 18.4226 145.823 18.5223 145.972 18.7074C146.239 19.0409 146.149 19.5208 146.143 19.9438C146.127 20.0913 146.164 20.2396 146.247 20.3627C146.324 20.4348 146.419 20.4856 146.522 20.5102C146.625 20.5348 146.733 20.5323 146.834 20.503C147.036 20.4424 147.248 20.4223 147.458 20.4441C147.679 20.5158 147.87 20.6589 148.001 20.8508C148.667 21.6988 148.928 22.6302 149.21 23.6511C149.243 23.9023 149.368 24.1322 149.562 24.2958C149.702 24.363 149.856 24.3964 150.011 24.3934C151.456 24.4829 152.963 24.5479 154.293 23.9867C154.542 23.8985 154.766 23.7504 154.945 23.5555C155.035 23.441 155.104 23.3116 155.149 23.1732C155.151 23.1996 155.137 23.222 155.12 23.2423Z" fill="black"/>
<path opacity="0.1" d="M145.892 16.3463C145.956 16.2769 146.006 16.1953 146.037 16.1063C146.055 16.0034 146.055 15.8981 146.037 15.7952C145.997 15.2154 146.073 14.6335 146.259 14.0829L146.233 14.0524C145.954 14.7022 145.837 15.4098 145.892 16.1145C145.898 16.1916 145.898 16.2691 145.892 16.3463Z" fill="black"/>
</g>
<path opacity="0.1" d="M148.355 26.5694C148.355 26.5694 154.282 27.3543 154.814 26.4656L148.355 26.5694Z" fill="black"/>
<path opacity="0.1" d="M159.877 24.1229C159.877 24.1229 163.172 24.1229 163.896 25.3594L159.877 24.1229Z" fill="black"/>
<defs>
<linearGradient id="paint0_linear" x1="143.992" y1="111.073" x2="143.992" y2="11.6974" gradientUnits="userSpaceOnUse">
<stop stop-color="#808080" stop-opacity="0.25"/>
<stop offset="0.54" stop-color="#808080" stop-opacity="0.12"/>
<stop offset="1" stop-color="#808080" stop-opacity="0.1"/>
</linearGradient>
</defs>
</svg>
